<svg xmlns="http://www.w3.org/2000/svg" xmlns:xlink="http://www.w3.org/1999/xlink" version="1.1" id="Livello_1" x="0px" y="0px" viewBox="0 0 700 700" style="enable-background:new 0 0 700 700;" xml:space="preserve">
<g>
	<path d="M524.14,273.94c-5.05,0-10.11-3.79-10.11-10.11c-1.26-1.26-3.79-3.79-15.15-8.85c-5.05-2.53-7.58-7.58-6.32-12.63   c2.53-5.05,7.58-7.58,12.63-6.32c7.58,2.53,29.05,10.11,29.05,26.53C534.25,270.15,529.19,273.94,524.14,273.94L524.14,273.94z"></path>
	<path d="M359.94,582.14c-75.79,0-146.52-6.32-199.57-17.68c-55.58-11.37-84.63-26.53-89.69-46.73v-2.53v-1.26v-2.53   c7.58-34.11,88.42-49.26,157.89-56.84c5.05-1.26,10.11,3.79,11.37,8.85c0,5.05-3.79,10.11-8.85,11.37   c-102.31,11.37-137.68,31.58-140.21,40.42c1.26,5.05,16.42,18.94,73.26,30.32c53.06,10.1,122.53,16.41,195.8,16.41h1.26   c169.26,0,263.99-30.32,266.52-46.73c-1.26-8.85-35.37-29.05-135.16-40.42c-5.05-1.26-10.11-6.32-8.85-11.37s6.32-10.11,11.37-8.85   c66.95,7.58,146.52,24,152.84,56.84v3.79v1.26v2.53C636.56,569.52,457.2,582.14,359.94,582.14L359.94,582.14z"></path>
	<path d="M359.94,551.83c-30.32,0-59.37-2.53-80.84-7.58c-17.68-3.79-40.42-10.11-40.42-26.53c0-5.05,5.05-10.11,10.11-10.11   c5.05,0,8.85,3.79,10.11,8.85c6.32,5.05,40.42,15.15,99.78,15.15c59.37,0,93.47-10.11,99.78-15.15c1.26-5.05,5.05-8.85,10.11-8.85   c5.05,0,10.11,5.05,10.11,10.11c0,16.42-22.73,22.73-40.42,26.53C418.04,549.3,390.25,551.83,359.94,551.83L359.94,551.83z"></path>
	<path d="M361.2,306.78C359.94,306.78,359.94,306.78,361.2,306.78c-18.94,0-174.31-1.26-174.31-44.21c0-5.05,5.05-10.11,10.11-10.11   c5.05,0,10.11,3.79,10.11,10.11c6.32,8.85,60.63,25.26,152.84,25.26c93.47,0,147.79-16.42,152.84-25.26   c0-5.05,5.05-10.11,10.11-10.11c5.05,0,10.11,5.05,10.11,11.37c0,15.15-17.68,26.53-55.58,34.11   C445.83,302.99,405.41,306.78,361.2,306.78L361.2,306.78z"></path>
	<path d="M196.99,272.68c-5.05,0-10.11-5.05-10.11-11.37c0-15.15,17.68-26.53,55.58-34.11c31.58-6.32,73.26-10.11,117.47-10.11   c22.73,0,44.21,1.26,65.68,2.53c5.05,0,10.11,5.05,8.85,11.37c0,5.05-5.05,10.11-11.37,8.85c-20.21-1.26-41.68-2.53-63.16-2.53   c-93.47,0-147.79,16.42-152.84,25.26C207.09,268.89,202.04,272.68,196.99,272.68L196.99,272.68z"></path>
	<path d="M359.94,521.51c-30.32,0-98.52-2.53-98.52-29.05c0-5.05,5.05-10.11,10.11-10.11c5.05,0,8.85,2.53,10.11,7.58   c6.32,3.79,32.84,11.37,78.31,11.37s72-6.32,78.31-11.37c1.26-3.79,5.05-7.58,10.11-7.58c5.05,0,10.11,5.05,10.11,10.11   C458.46,517.73,390.25,521.51,359.94,521.51z"></path>
	<path d="M271.52,502.57c-5.05,0-8.85-3.79-10.11-8.85c-6.32-31.58-41.68-64.42-85.89-78.31c-16.42-5.05-34.11-12.63-46.73-26.53   c-13.89-13.89-20.21-39.15-8.85-58.11c7.58-11.37,21.47-18.94,36.63-20.21c11.37-1.26,24,2.53,37.9,7.58   c5.05,2.53,7.58,8.85,5.05,13.89c-2.53,5.05-8.85,7.58-13.89,5.05c-10.11-5.05-20.21-6.32-27.79-6.32   c-8.85,0-16.42,5.05-20.21,10.11c-6.32,10.11-1.26,24,6.32,32.84c10.11,10.11,25.26,16.42,37.9,20.21   c41.68,13.89,90.94,48,99.78,93.47c1.26,5.05-2.53,11.37-7.58,11.37C272.78,502.57,272.78,502.57,271.52,502.57L271.52,502.57z"></path>
	<path d="M448.35,502.57c-5.05,0-10.11-5.05-10.11-10.11c0-27.79,12.63-42.94,26.53-59.37c10.11-11.37,18.94-22.73,27.79-40.42   c21.47-45.47,21.47-104.84,21.47-130.1c0-5.05,5.05-10.11,10.11-10.11c5.05,0,10.11,5.05,10.11,10.11c0,26.53,0,89.69-24,138.95   c-8.85,20.21-20.21,32.84-30.32,44.21c-12.63,15.15-22.73,26.53-22.73,46.73C458.46,497.51,453.41,502.57,448.35,502.57   L448.35,502.57z"></path>
	<path d="M434.46,281.52h-2.53c-5.05-1.26-8.85-7.58-6.32-12.63c15.15-46.73,42.94-93.47,73.26-121.26   c3.79-3.79,8.85-7.58,13.89-8.85c7.58-2.53,16.42,0,21.47,5.05c6.32,6.32,7.58,16.42,2.53,27.79   c-5.05,12.63-13.89,22.73-21.47,31.58c-2.53,3.79-6.32,6.32-8.85,10.11c-3.79,3.79-6.32,7.58-8.85,11.37   c-10.11,11.37-16.42,20.21-25.26,41.68c-2.53,5.05-7.58,7.58-13.89,5.05c-5.05-2.53-7.58-7.58-5.05-13.89   c10.11-24,18.94-35.37,29.05-48c2.53-3.79,5.05-6.32,8.85-10.11c2.53-3.79,6.32-7.58,8.85-11.37c7.58-8.85,15.15-17.68,18.94-26.53   c1.26-2.53,1.26-5.05,1.26-5.05h-1.26c-2.53,1.26-3.79,2.53-6.32,5.05c-27.79,25.26-54.31,68.2-66.95,111.16   C443.3,277.73,439.52,281.52,434.46,281.52L434.46,281.52z"></path>
</g>
</svg>