<svg xmlns="http://www.w3.org/2000/svg" xmlns:xlink="http://www.w3.org/1999/xlink" version="1.1" id="Livello_1" x="0px" y="0px" viewBox="0 0 700 700" style="enable-background:new 0 0 700 700;" xml:space="preserve">
<g>
	<path d="M596.46,325.25c4.63-9.27,6.49-18.53,6.49-26.86c-0.92-14.82-12.05-26.86-25.02-29.65c-11.12-1.85-27.8,0-35.21,11.12   c-4.63,5.56-6.48,12.98-6.48,20.39c-8.34-4.63-19.46-4.63-28.72-0.92c-4.63,2.78-9.27,5.56-12.05,10.19l-118.59-0.92   c0.92-7.41,0-13.89-2.78-20.38c-4.63-11.12-13.89-19.46-25.02-21.31c-8.34-1.85-15.75,0-22.24,4.63   c-16.67-34.28-12.97-82.45,28.72-110.25c3.7-2.78,4.63-7.41,1.85-10.19c-2.78-3.7-7.41-4.63-10.19-1.85   c-46.32,31.5-52.81,84.31-36.13,124.14c-0.92-0.92-2.78-0.92-3.7-1.85c-11.12-3.7-24.09,0.92-30.57,11.12   c-2.78,4.63-4.63,11.12-4.63,17.6c0,2.78,0.92,5.56,0.92,8.34l-91.72-0.92c-0.92,0-1.85,0-2.78,0.92c-0.92,0-0.92,0.92-1.85,0.92   c-1.85,0-1.85,0.93-2.77,1.85v0.92c0,0.92-0.92,1.85-0.92,2.78v199.19c0,2.78,1.85,5.56,3.7,6.49l142.67,81.53   c0.92,0.92,2.78,0.92,3.7,0.92h0.92H325h0.92c62.07-6.49,204.75-25.94,210.31-73.19c0.92-0.92,0.92-1.85,0.92-3.7l0.01-140.82   c9.27-5.56,16.67-12.97,22.24-22.24c8.34,1.85,16.67,2.78,26.86,0.92c10.19-1.85,16.67-14.82,15.75-25.94   C601.09,332.67,599.24,328.04,596.46,325.25L596.46,325.25z M288.88,289.12c1.85-2.78,5.56-4.63,10.19-4.63c0.92,0,2.78,0,3.7,0.92   c2.78,0.92,4.63,1.85,7.41,3.7c5.56,2.78,12.05,6.49,20.38,4.63c3.7-0.92,6.49-4.63,6.49-8.34c0-0.92,0-0.92-0.92-1.85   c2.78-1.85,7.41-2.78,10.19-1.85c6.49,0.92,12.05,5.56,13.89,12.05c2.78,6.49,2.78,13.89,0,21.31   c-2.78,7.41-7.41,12.97-12.97,15.75c-4.63,1.85-10.19,2.78-18.53,2.78c-10.19,0-18.53-2.78-25.02-6.49   c-9.27-5.56-15.75-16.67-16.67-27.8C286.1,294.68,287.03,291.9,288.88,289.12L288.88,289.12z M295.36,340.08   c8.34,4.63,19.46,7.41,32.43,8.34h3.7c6.49,0,14.82-0.92,22.24-4.63c8.34-3.7,14.82-11.12,19.46-20.38l116.73,0.92v1.85   c-10.19,0.92-20.38,7.41-27.8,15.75c-20.38-16.67-56.51-16.67-81.53-6.49c-9.27,3.7-16.67,10.19-24.09,15.75   c-15.75,12.05-23.16,16.67-32.43,11.12c-21.31-14.82-33.35-5.56-37.05-1.85c-0.92,0.92-1.85,1.85-1.85,2.78l-73.19-41.69   l67.63,0.92h0.92C282.4,329.89,287.95,335.45,295.36,340.08L295.36,340.08z M188.82,394.74l127.85,73.19v50.03l-127.85-73.19   V394.74z M316.67,419.75v31.5l-127.85-73.19v-50.03L279.61,379c-0.92,8.34,1.85,16.67,6.49,24.09c6.49,9.27,17.6,12.05,28.72,8.34   C313.89,413.27,314.82,416.05,316.67,419.75L316.67,419.75z M188.82,509.62V463.3l127.85,73.19v46.32L188.82,509.62z    M578.86,331.74c0.92,2.78,4.63,3.7,7.41,3.7c0,0,0.92,1.85,0.92,4.63c0,4.63-1.85,7.41-2.78,8.34   c-10.19,1.85-17.6,0.92-25.02-2.78c-1.85-0.92-3.7-0.92-6.49,0c-1.85,0.92-3.7,2.78-4.63,4.63c-6.49,18.53-28.72,31.5-48.18,26.86   c-0.92,0-2.78-0.92-3.7-0.92c-6.49-1.85-12.97-3.7-20.38-0.92c-4.63,1.85-7.41,3.7-10.19,6.49c-0.92,0.92-1.85,1.85-2.78,1.85   c-7.41,4.63-17.6,5.56-25.02,1.85c-0.92,0-1.85-0.92-2.78-1.85c-4.63-2.78-11.12-6.49-19.46-3.7c-5.56,1.85-9.27,6.49-11.12,9.27   l-0.92,0.92c-17.6,22.24-34.28,39.83-63,28.72c-13.89-5.56-12.97-10.19-12.05-15.75c0.92-2.78,1.85-7.41-2.78-11.12   c-1.85-0.92-3.7-1.85-5.56-1.85c-3.7,0-6.49,1.85-10.19,3.7c-8.34,3.7-12.05,0.92-13.89-1.85c-4.63-6.49-4.63-17.6-0.92-22.24   c4.63-4.63,13.89,0.92,17.6,3.7c18.53,12.97,35.21,0,50.03-12.05c6.49-5.56,13.89-11.12,21.31-13.89   c21.31-9.27,56.51-8.34,70.41,8.34c1.85,1.85,3.7,2.78,6.49,2.78c2.78,0,4.63-1.85,5.56-3.7c5.56-9.27,19.46-18.53,25.94-14.82   c2.78,1.85,5.56,0.92,8.34-0.92c2.78-1.85,3.7-5.56,2.78-8.34c-2.78-7.41,1.85-17.6,9.27-20.38c7.41-3.7,17.6-0.92,22.24,6.49   c1.85,2.78,4.63,3.7,8.34,2.78c2.78-0.92,5.56-2.78,5.56-6.49c0-2.78,0.92-5.56,0.92-8.34c0.92-6.49,0.92-14.82,3.7-18.53   c3.7-4.63,13.89-6.49,20.38-5.56c7.41,0.92,12.05,9.27,12.05,15.75c0.92,9.27-3.7,18.53-8.34,25.02   C577.94,326.18,577.94,329.89,578.86,331.74L578.86,331.74z"></path>
	<path d="M269.42,184.43c4.63,1.85,10.19,3.7,15.75,3.7c10.19,0,23.16-4.63,36.13-17.6l2.78-2.78v-3.7c0-3.7-1.85-8.34-3.7-12.05   c0.92,0.92,2.78,1.85,5.56,1.85c3.7,0,7.41-3.7,7.41-7.41c0-11.12-8.34-20.38-15.75-30.57c-10.19-12.97-16.67-21.31-12.97-29.65   c2.78-6.49,1.85-10.19-1.85-12.97c-0.92-0.92-5.56-3.7-11.12,0.92c-9.27,8.34-27.8,40.77-13.89,68.56c0.92,1.85,1.85,2.78,3.7,3.7   c-11.12,3.7-19.46,5.56-24.09,0c-0.92-1.85-5.56-6.49-11.12-3.7l-6.49,1.85v5.56C239.77,156.64,251.82,176.09,269.42,184.43   L269.42,184.43z M289.8,102.9c3.7,8.34,10.19,15.75,15.75,22.24c6.49,7.41,12.97,14.82,12.97,20.38c0,1.85,0.92,2.78,1.85,4.63   c-2.78-3.7-7.41-7.41-12.97-9.27c-4.63-0.92-10.19,0-16.67,1.85c0.92-1.85,1.85-4.63,0-7.41   C284.24,125.14,286.09,113.09,289.8,102.9L289.8,102.9z M287.95,159.42c4.63-1.85,12.05-3.7,13.89-3.7c3.7,0.92,5.56,3.7,6.49,6.49   c-10.19,9.27-19.46,12.05-28.72,9.27c-4.63-0.92-9.27-3.7-12.97-7.41C274.05,164.05,281.47,161.27,287.95,159.42L287.95,159.42z"></path>
</g>
</svg>