<svg xmlns="http://www.w3.org/2000/svg" xmlns:xlink="http://www.w3.org/1999/xlink" version="1.1" id="Livello_1" x="0px" y="0px" viewBox="0 0 700 700" style="enable-background:new 0 0 700 700;" xml:space="preserve">
<g>
	<path d="M565.35,158.67c-12.12-21.98-48.86-41.82-154.9-11.59c-129.36,36.88-279.35,100.91-280.86,101.55   c-0.27,0.12-0.51,0.28-0.77,0.43c-8.06,3.59-13.72,9.63-16.26,17.64c-6.74,21.29,9.7,50.79,22.86,71.45   c3.16,4.95,6.39,9.76,9.72,14.44c44.75,67.78,104.42,152.53,156.91,193.38c3.61,3.74,28.19,28.08,55.84,28.08   c4.12,0,8.31-0.54,12.51-1.77c22.77-6.69,38.81-31.53,47.76-73.85c10.21-0.1,19.35-2.46,27.43-7.38   c5.71-3.48,10.52-8.12,14.75-13.55c0.12-0.12,0.24-0.2,0.35-0.32c1.58-1.81,3.3-4.34,4.84-7.34   c18.31-31.07,21.03-83.1,23.79-137.59c0.43-8.57,0.88-17.16,1.38-25.69C554.92,248.09,583.54,191.63,565.35,158.67L565.35,158.67z    M160.68,341.13c-0.04-0.06-0.09-0.12-0.12-0.17c-4.64-7.04-8.01-12.14-9.81-14.65c-0.01-0.02-0.03-0.03-0.04-0.05   c-20.21-32.04-21.93-46.9-19.77-53.74c0.61-1.93,1.85-4.36,6.1-6.1c7.84-3.23,14.88-3.38,21.51-0.43   c21.48,9.51,35.33,47.84,43.6,70.74c1.26,3.5,2.42,6.69,3.47,9.43c0.08,0.19,0.16,0.37,0.24,0.56c0.04,0.09,0.05,0.17,0.1,0.25   c0.02,0.03,0.04,0.07,0.06,0.11c30.32,78.14,89.91,105.06,158.87,136.18l9.38,4.24c8.8,3.98,16.97,6.76,24.67,8.59   c-1.9,8.71-4.09,16.53-6.58,23.37c-5.1-9-14.63-17.43-28.39-24.78l-1.96-1.05C285.07,452.48,212.14,413.49,160.68,341.13   L160.68,341.13z M225.9,434.23c38.97,29.31,82.35,52.49,127.04,76.38l1.96,1.05c13.3,7.11,21.71,15.33,22.46,21.99   c0.43,3.74-1.75,7.74-6.5,11.89c-5.13,4.49-10.96,6.12-18.43,5.11c-10.36-1.4-22.55-7.47-36.48-18.05   c-0.09-0.09-0.19-0.19-0.27-0.28c-0.5-0.53-1.13-0.83-1.72-1.22C289.76,512.19,260.35,479.86,225.9,434.23L225.9,434.23z    M435.55,474.57c-12.36,7.53-29.8,6.01-53.32-4.65l-9.41-4.25c-41.91-18.91-78.38-35.4-106.62-61.95   c16.02,7.62,34.31,12.58,54.31,13.05c104.8,2.46,125.09,22.64,128.94,31.2c2.25,4.98,0.6,9.95-1.08,13.12   C444.78,466.88,440.58,471.51,435.55,474.57L435.55,474.57z M492.74,278c3.49-38.88,10.11-72.98,26.72-89.54   c3.77-3.75,3.78-9.86,0.03-13.63c-3.75-3.77-9.85-3.78-13.63-0.03c-24.86,24.76-30.9,72.88-34.19,126.76v0.02   c-0.59,9.74-1.11,19.65-1.61,29.67c-1.79,35.21-3.62,71.07-10,98.67c-18.81-20.02-64.55-30.67-139.1-32.42   c-45.35-1.07-83.27-30.25-97.5-58.67c-0.97-2.55-2.02-5.45-3.18-8.67c-8.63-23.89-22.67-62.64-47.74-78.45   c51.99-21.08,152.7-60.3,243.18-86.1c102.53-29.23,126.99-8.08,132.75,2.36C558.59,186.33,544.43,226.59,492.74,278L492.74,278z"></path>
</g>
</svg>