<svg xmlns="http://www.w3.org/2000/svg" xmlns:xlink="http://www.w3.org/1999/xlink" version="1.1" id="Livello_1" x="0px" y="0px" viewBox="0 0 700 700" style="enable-background:new 0 0 700 700;" xml:space="preserve">
<g>
	<path d="M546.29,551.13l-0.63-0.35l-0.22,0.09l-95.97-55.01l0.3-3.7c0.49-6.11,1.02-12.66,1.55-19.58   c5.91-75.94,14.28-195.1,17.43-239.96l0.89-12.63c0.13-1.26,0.3-2.84,0.3-4.37v-0.15c0-7.58-2.24-14.98-6.65-21.99   c-3.74-6.01-9.21-11.78-16.25-17.16V49.48c0-0.28-0.03-0.75-0.21-1.19c-0.23-1.16-0.79-2.26-1.56-3.04   c-1.37-1.37-2.96-2.02-4.2-2.43c-1.44-0.48-3.15-0.74-4.83-0.74c-2.53,0-4.87,0.55-6.78,1.58c-1.12,0.61-1.92,1.24-2.5,1.98   c-0.9,1.03-1.38,2.28-1.38,3.62v112.99c-2.94-3.29-6.58-6.39-10.87-9.23c-2.18-5.53-6.41-10.56-12.56-14.95   c-0.62-3.28-2.11-6.39-4.42-9.24c-2.05-2.53-4.83-4.89-8.25-7.03c0.04-0.55,0.1-1.23,0.1-2.07c0-5.03-1.03-14.95-7.96-24.8   c-1.45-2.05-3.73-3.22-6.25-3.22c-1.77,0-3.42,0.57-4.78,1.66c-1.51,1.21-2.47,3.11-2.56,5.16c0,1.38-0.35,2.58-1.1,3.79   c-0.85,1.36-2.44,2.48-4.67,3.29c-2.16,0.72-4.81,1.1-7.65,1.1c-6.13,0-14.96,0.49-22.27,2.81c-3.74,1.25-6.53,2.75-8.52,4.6   c-2.23,2.06-3.6,4.77-3.84,7.54c-3.38,2.06-6.23,4.47-8.49,7.17c-2.31,2.84-3.79,5.95-4.42,9.23c-6.07,4.27-10.4,9.42-12.56,14.96   c-5.67,3.74-10.19,7.92-13.43,12.43c-12.27,5.88-22.11,13-29.24,21.19c-7.58,8.85-11.59,18.79-11.59,28.75v0.15   c0,1.51,0.15,2.93,0.29,4.31l0.01,0.08c1.39,20.47,12.2,175.94,19.06,262.54c0.25,3.37,0.53,6.64,0.8,9.77   c0.1,1.21,0.21,2.39,0.3,3.55l-96.59,55.36c-1.16,0.65-1.88,1.88-1.88,3.23s0.72,2.58,1.86,3.22l189.27,108.45   c0.56,0.31,1.19,0.47,1.83,0.47c0.64,0,1.29-0.16,1.86-0.47l189.24-108.43c1.16-0.65,1.88-1.88,1.88-3.23   S547.45,551.77,546.29,551.13z M274.75,187.76c0.91,6.13,3.76,11.96,8.48,17.32c6.6,7.48,16.67,13.79,29.14,18.22   c12.53,4.46,27.06,6.81,42.02,6.81c18.23,0,36.01-3.59,50.05-10.11c8.89-4.15,15.9-9.11,20.91-14.79v3.75c0,0.17,0,0.43,0.09,0.75   c0.05,0.4,0.19,0.7,0.36,0.92c0.07,0.12,0.15,0.22,0.2,0.29c0.18,0.32,0.42,0.57,0.73,0.76c0.19,0.14,0.38,0.24,0.56,0.33   c0.11,0.07,0.22,0.15,0.37,0.22l0.31,0.15h0.29c1.54,0.44,3.77,1.25,5.97,2.72c2.55,1.62,4.38,3.69,5.44,6.15   c0.04,0.13,0.09,0.26,0.16,0.37c0.15,0.35,0.38,0.69,0.65,0.95c0.24,0.24,0.53,0.39,0.78,0.51c0.11,0.07,0.22,0.15,0.37,0.22   l0.23,0.09c0.27,0.09,0.64,0.21,1.09,0.21h0.15c0.19,0,0.44-0.02,0.69-0.08c0.18-0.01,0.41-0.04,0.66-0.13   c0.13-0.04,0.26-0.09,0.39-0.17c0.35-0.15,0.68-0.38,0.96-0.65c0.24-0.24,0.39-0.53,0.52-0.78c0.07-0.11,0.15-0.22,0.22-0.37   l0.09-0.22c0.09-0.27,0.21-0.65,0.21-1.09v-11.66c0.89,2.3,1.35,4.6,1.36,6.9l-2.79,19.75c-0.77,5.27-1.75,10.04-2.99,14.59   c-1.39,4.98-2.85,9.07-4.58,12.86c-6.67,14.78-10.32,30.4-10.84,46.44l-3.92,111.23c0,1.41-1.18,2.56-2.64,2.56h-0.15   c-0.66,0-1.28-0.27-1.77-0.77c-0.48-0.5-0.74-1.16-0.72-1.87l0-0.1l4.14-128.73v-0.22c0-5.15-4.19-9.33-9.33-9.33h-1.06l-0.1,0.01   c-4.65,0.62-8.08,4.44-8.17,9.06l-1.55,59.21c0,1.41-1.18,2.56-2.71,2.56c-1.41,0-2.56-1.18-2.56-2.64v-46.73h0.07v-1.5   c0-11.97-7.18-22.63-18.26-27.16l-30.1-12.87l-0.64-0.26h-0.16l-2.87-1.09c-3.19-1.16-6.55-1.95-10.29-2.44   c-7.36-0.97-13.8-2.17-19.71-3.66c-13.98-3.44-26.26-8.4-35.52-14.36c-9.47-6.1-15.38-13.06-17.09-20.16   c-1.01-3.97-1.5-7.57-1.5-11.01c0-7.27,2.2-14.11,6.52-20.33c2.08-2.92,4.66-5.71,7.7-8.34c-0.17,1.21-0.25,2.42-0.25,3.63   C274.37,185.05,274.5,186.4,274.75,187.76z M375.15,99.07c0.11,0,0.17,0.02,0.17,0.03c5.74,8.15,6.59,16.38,6.59,20.56   c0,0.82,0,1.52-0.06,1.94l-0.01,1.23c0,0.04-0.01,0.19-0.04,0.39l-0.02,0.15c-0.2,2.1-1.37,4.38-3.38,6.59   c-3.19,3.48-8.27,6.37-13.92,7.91c-3.28,0.9-6.63,1.35-9.95,1.35c-3.35,0-6.78-0.47-9.95-1.35c-5.57-1.53-10.64-4.41-13.92-7.91   c-1.96-2.15-3.16-4.45-3.38-6.46c0-0.01,0-0.02,0-0.04l0-0.62c0-1.28,0.43-2.17,1.6-3.27l1.26-1.2c1.99-1.22,5.01-2.28,8.64-3   c4.32-0.86,9.59-1.3,15.67-1.3c5.24,0,9.68-0.98,13.22-2.92c2.3-1.29,4.07-2.93,5.24-4.82   C374.25,104.37,375.02,101.88,375.15,99.07z M366.31,144.89c7-1.94,13.18-5.5,17.39-10.03c1.58-1.7,2.82-3.52,3.72-5.45   c1.67,1.24,3.13,2.62,4.29,4.05c1.79,2.17,2.84,4.54,3.13,7.04c0,0.36,0.04,0.66,0.06,0.88l0.01,0.07c0,1.65-0.43,3.32-1.32,5.09   c-1.25,2.5-3.46,4.94-6.37,7.04l-0.25,0.17c-7.78,5.52-19.96,8.81-32.59,8.81c-12.67,0-24.8-3.24-32.39-8.62l-0.4-0.32   c-3.01-2.24-5.23-4.69-6.42-7.08c-0.89-1.78-1.32-3.45-1.32-5.09c0-0.01,0-0.01,0-0.02l0.07-0.9c0.2-2.41,1.25-4.79,3.15-7.08   c1.1-1.36,2.51-2.69,4.29-4.02c0.9,1.91,2.14,3.73,3.71,5.43c4.21,4.53,10.39,8.09,17.41,10.03   C350.58,147.04,358.5,147,366.31,144.89z M317.62,159.97c9.08,6.37,22.45,10.02,36.69,10.02c14.35,0,27.8-3.71,36.92-10.18   l0.33-0.3c3.88-2.87,6.76-6.11,8.57-9.66c0.47-0.98,0.84-1.88,1.12-2.74c3.22,2.95,5.48,6.18,6.58,9.44   c0.54,1.63,0.81,3.19,0.81,4.77c0,0.1,0,0.33-0.1,0.74l-0.05,0.93c-0.49,3.58-2.2,7.03-5.08,10.26   c-4.35,4.86-11.27,9.15-19.47,12.07c-8.8,3.13-19.1,4.79-29.79,4.79c-10.58,0-20.83-1.66-29.64-4.79   c-8.26-2.9-15.18-7.13-19.47-11.92c-2.95-3.29-4.66-6.79-5.08-10.39v-0.28c0-0.51-0.07-0.94-0.11-1.25   c-0.02-0.1-0.03-0.18-0.04-0.23c0-1.05,0.12-2.1,0.36-3.16l0.1,0.05l0.52-1.6c1.03-3.2,3.29-6.43,6.58-9.43   c0.29,0.87,0.66,1.78,1.14,2.78c1.86,3.65,4.76,6.9,8.61,9.67L317.62,159.97z M386.58,192.36c9.51-3.35,17.31-8.22,22.56-14.08   c3.95-4.43,6.26-9.28,6.87-14.41l0.01-0.49c2.48,2.13,4.49,4.29,6.02,6.45c0.52,0.7,1.06,1.52,1.68,2.59   c0.68,1.16,1.22,2.39,1.64,3.38v15.75c-3.27,8.35-11.81,16.06-24.1,21.74c-13.17,6.06-29.84,9.39-46.94,9.39   c-18.73,0-36.5-3.9-50.06-10.99c-6.32-3.26-11.68-7.28-15.52-11.63c-3.78-4.28-6.05-8.81-6.73-13.46   c-0.16-1.18-0.28-2.15-0.28-2.97c0-3.35,0.82-6.63,2.49-9.96l0.9-1.44c0.32-0.52,0.69-1.11,1.14-1.69c1.7-2.47,3.81-4.81,6.43-7.1   l0.01,0.37c0.61,5.22,2.94,10.15,6.95,14.64c5.19,5.79,12.99,10.64,22.56,14.01c9.63,3.39,20.73,5.18,32.12,5.18   C365.88,197.62,377.04,195.8,386.58,192.36z M438.36,208.95c-2.07-1.31-4.01-2.18-5.5-2.74V56.03c2.33,0.48,4.58,0.46,6.68-0.05   v153.77C439.15,209.46,438.76,209.2,438.36,208.95z M443.35,477.2c-0.58,7.44-1.12,14.46-1.66,20.9   c-1.6,19.14-2.74,32.03-3.46,37.15c-1.81,13.16-10.39,24.35-24.8,32.35c-14.66,8.14-34.56,12.6-57.55,12.88h-2.06   c-22.87-0.22-42.78-4.67-57.57-12.88c-14.42-8.01-22.99-19.2-24.8-32.36c-0.71-4.97-1.85-17.93-3.46-37.23   c-0.3-3.4-0.57-6.92-0.85-10.64c-0.13-1.75-0.27-3.54-0.41-5.37c-5.62-70.53-14-189.96-17.57-240.85c0.84,1.14,1.74,2.27,2.68,3.37   c9.37,10.79,23.85,19.85,41.85,26.21c17.86,6.36,38.56,9.84,59.89,10.06h2.51c5.68,0,11.29-0.39,16.08-0.79l3.16,1.35   c8.31,3.33,13.69,11.27,13.69,20.25v48.29c-0.08,5.48,4.19,9.91,9.77,10.09H399c5.47,0,9.89-4.3,10.07-9.81l1.55-59.21   c0-0.89,0.7-1.66,1.64-1.82h0.33c1.04,0,1.9,0.85,1.9,1.9l0,0.1l-4.14,128.73v0.29c0,5.38,4.36,9.89,9.78,10.07h0.29   c5.47,0,9.89-4.27,10.07-9.72l3.92-111.18c0.51-15.14,3.95-29.83,10.21-43.67c1.72-3.76,3.18-7.83,4.6-12.76   c4.51-3.68,8.3-7.6,11.34-11.68c-3.52,50.27-11.2,159.58-16.81,230.83L443.35,477.2z M453.01,236.22l1.59-11.26   c0.71-1.34,2.4-4.66,3.06-8.7c0.48-2.62,0.69-4.76,0.69-6.92c0-4.87-1.04-9.74-3.07-14.46c0.63,0.87,1.22,1.75,1.77,2.63l1.42,2.28   c2.67,4.98,4.05,10.21,4.12,15.57l-0.28,3.92c-0.89,7.1-4.21,13.96-9.88,20.43C452.63,238.54,452.82,237.38,453.01,236.22z    M253.09,208.82c0,4.27,0.59,8.6,1.74,12.84c2.25,9.14,9.05,17.4,20.22,24.54c9.84,6.32,22.89,11.62,37.76,15.34   c6.51,1.61,13.4,2.88,20.49,3.8c3.12,0.37,6.04,1.04,8.68,1.99l2.95,1.08l11.76,5.02c-0.61,0.01-1.22,0.01-1.84,0.01   c-27.79-0.14-54.2-5.99-74.36-16.45c-9.66-5.05-17.42-10.87-23.06-17.31c-5.61-6.4-8.92-13.26-9.82-20.3   c-0.08-1.32-0.16-2.32-0.22-3.01v-0.97c0-7.84,2.96-15.44,8.81-22.63C254.08,197.84,253.04,203.21,253.09,208.82z M447.04,194.87   v-0.12c0.05,0.1,0.11,0.2,0.16,0.3C447.15,194.99,447.09,194.93,447.04,194.87z M261.05,504.04c1.5,18.06,2.42,27.74,3.07,32.16   c2.15,15.65,12.02,28.73,28.53,37.82c15.7,8.71,36.74,13.48,60.86,13.78h2.68c24.09-0.3,45.13-5.06,60.84-13.78   c16.61-9.22,26.47-22.3,28.53-37.83c0.66-5.06,1.79-16.98,3.06-32.15l87.95,50.42L354.84,658.55L173.11,554.46L261.05,504.04z"></path>
	<path d="M383.77,239.73l0.13,0.13h0.62c4.74,0,9.19,1.84,12.53,5.18c3.34,3.34,5.18,7.79,5.18,12.53c0,2.08,1.63,3.72,3.72,3.72   s3.72-1.63,3.72-3.72c0-13.9-11.31-25.21-25.21-25.21c-2.08,0-3.72,1.63-3.72,3.72C380.74,237.92,382.03,239.42,383.77,239.73z"></path>
</g>
</svg>