<svg xmlns="http://www.w3.org/2000/svg" xmlns:xlink="http://www.w3.org/1999/xlink" id="Livello_1" x="0px" y="0px" viewBox="0 0 700 700" style="enable-background:new 0 0 700 700;" xml:space="preserve"><g>	<path d="M636.8,184.81L556.56,68.36c-5.83-8.48-17.39-10.57-25.75-4.73c-2.2,1.54-3.96,3.41-5.39,5.72l-42.15,70.33   c-7.7-21.46-21.24-40.28-38.96-54.59c-24.11-19.37-54.15-29.83-85.08-29.72c-42.27,0-80.02,19.15-103.9,48.76L234.85,68.8   c-8.59-14.75-28.07-20.14-43.48-12.22l-10.79,5.5c-7.59,3.85-13.32,10.68-15.63,18.82c-2.31,7.82-1.32,16.18,2.86,23.22l46.34,79.8   l-105.11-41.16c-16.18-6.38-35,0.99-41.82,16.51l-4.73,10.68c-3.3,7.38-3.41,15.85-0.33,23.33c3.3,7.93,9.68,14.09,17.72,17.17   l86.63,34.01c-9.79,17.61-15.08,37.53-15.08,57.79c0,2.97,0.11,5.95,0.33,8.8c-8.59,1.98-14.64,9.46-14.75,18.27v72.97   c0,31.7,16.07,61.41,45.12,83.54c28.51,21.68,66.15,33.57,106.21,33.57c19.37,0,35.66,11.55,35.66,25.2v12.22   c0,7.27-9.36,13.54-20.36,13.54l-70.77,0c-14.31,0-25.43,9.36-25.43,21.35c0,12,11.12,21.35,25.43,21.35h233.45   c14.31,0,25.43-9.36,25.43-21.35c0-12-11.12-21.46-25.43-21.46h-70.88c-11.01,0-20.36-6.16-20.36-13.54v-12.22   c0-13.65,16.4-25.2,35.77-25.2c40.06,0,77.7-11.89,106.21-33.57c29.17-22.12,45.12-51.84,45.12-83.54v-72.97   c0-5.72-2.75-11.12-7.27-14.64c0.33-3.85,0.55-7.7,0.55-11.55c-0.11-29.6-11.23-58.22-31.15-80.12l98.95-9.25   c10.23-0.88,17.72-9.91,16.73-20.14C639.66,190.53,638.56,187.45,636.8,184.81L636.8,184.81z M359.22,71.88   c27.18-0.11,53.49,9.14,74.73,26.09c19.26,15.41,32.58,37.09,37.64,61.31l-14.31,23.88c-10.68-2.64-21.57-3.85-32.58-3.85   c-24.88-0.11-49.2,6.71-70.44,19.48c-21.57-13.43-46.56-20.47-71.87-20.36c-12.66,0-25.2,1.76-37.42,5.17   c0-1.43-0.11-2.75-0.11-4.18C244.75,120.09,296.04,71.88,359.22,71.88L359.22,71.88z M168.26,310.5c-0.22-2.75-0.33-5.5-0.33-8.25   c0-59.21,51.29-107.42,114.36-107.42c19.92-0.11,39.51,4.84,57.01,14.31c-27.96,22.78-45.68,56.46-45.68,93.99   c0,2.42,0.11,4.95,0.22,7.38L168.26,310.5z M192.69,114.15l37.97-19.48l7.7,13.21l-37.86,19.59L192.69,114.15z M241.67,124.72   c-8.25,15.74-12.77,33.13-13.32,50.96l-19.59-33.9L241.67,124.72z M180.8,85.53c1.21-3.85,3.85-6.93,7.38-8.7l10.79-5.5   c7.7-3.96,17.28-1.43,21.46,5.72l1.87,3.3l-37.86,19.59l-2.31-4.07C180.25,92.8,179.81,89.06,180.8,85.53L180.8,85.53z    M133.36,213.53l16.4-37.09l14.75,5.83l-16.4,37.09L133.36,213.53z M103.1,201.65l16.4-37.09l14.75,5.83l-16.4,37.09L103.1,201.65z    M77.56,186.9c-1.43-3.3-1.32-7.04,0.11-10.35l4.73-10.68c3.3-7.48,12.55-11.01,20.58-7.82l1.1,0.44l-16.4,37.09l-1.76-0.66   C82.19,193.5,79.22,190.64,77.56,186.9L77.56,186.9z M163.52,225.42l16.4-37.09l28.94,11.45c-12.77,8.14-23.88,18.49-33.02,30.6   L163.52,225.42z M545.66,402.29c0,55.47-60.54,100.6-134.94,100.6c-28.84,0-52.28,18.71-52.28,41.71v12.22   c0,16.51,16.51,30.05,36.87,30.05l70.88,0c5.39,0,8.91,2.86,8.91,4.84c0,1.98-3.52,4.84-8.91,4.84H232.86   c-5.39,0-8.91-2.86-8.91-4.84c0-1.98,3.52-4.84,8.91-4.84h70.88c20.36,0,36.87-13.43,36.87-30.05V544.6   c0-23-23.45-41.71-52.17-41.71c-74.4,0-134.94-45.12-134.94-100.6v-72.97c0.22-1.43,1.43-2.42,2.86-2.31h386.32   c1.43-0.11,2.64,0.88,2.86,2.31L545.66,402.29z M538.73,310.5H310.57c-0.22-2.42-0.22-4.95-0.22-7.38   c0-59.21,51.29-107.42,114.36-107.42s114.36,48.21,114.36,107.42C538.96,305.54,538.96,308.07,538.73,310.5L538.73,310.5z    M623.37,196.14c-0.33,0.66-0.88,1.1-1.65,1.21l-113.48,10.57c-10.57-8.36-22.34-14.97-34.89-19.81l13.87-23.11   c0-0.11,0.11-0.11,0.11-0.22l52.17-86.84c0.55-0.99,1.76-1.32,2.75-0.66c0.22,0.11,0.44,0.33,0.66,0.55l80.23,116.34   C623.7,194.71,623.81,195.48,623.37,196.14L623.37,196.14z"></path></g></svg>