<?xml version="1.0" encoding="UTF-8" standalone="no"?>
<!-- Created with Inkscape (http://www.inkscape.org/) -->

<svg
   width="100mm"
   height="40mm"
   viewBox="0 0 100 40"
   version="1.1"
   id="svg1"
   inkscape:version="1.3.2 (091e20e, 2023-11-25, custom)"
   sodipodi:docname="logo_giba_gelato.svg"
   xmlns:inkscape="http://www.inkscape.org/namespaces/inkscape"
   xmlns:sodipodi="http://sodipodi.sourceforge.net/DTD/sodipodi-0.dtd"
   xmlns="http://www.w3.org/2000/svg"
   xmlns:svg="http://www.w3.org/2000/svg">
  <sodipodi:namedview
     id="namedview1"
     pagecolor="#ffffff"
     bordercolor="#000000"
     borderopacity="0.25"
     inkscape:showpageshadow="2"
     inkscape:pageopacity="0.0"
     inkscape:pagecheckerboard="0"
     inkscape:deskcolor="#d1d1d1"
     inkscape:document-units="mm"
     inkscape:zoom="1.4627806"
     inkscape:cx="116.55883"
     inkscape:cy="88.530024"
     inkscape:window-width="1920"
     inkscape:window-height="1017"
     inkscape:window-x="-8"
     inkscape:window-y="-8"
     inkscape:window-maximized="1"
     inkscape:current-layer="layer1" />
  <defs
     id="defs1">
    <clipPath
       clipPathUnits="userSpaceOnUse"
       id="clipPath88">
      <path
         d="M 0,283.465 H 283.465 V 0 H 0 Z"
         transform="translate(-59.344701,-179.85121)"
         id="path88" />
    </clipPath>
    <clipPath
       clipPathUnits="userSpaceOnUse"
       id="clipPath90">
      <path
         d="M 0,283.465 H 283.465 V 0 H 0 Z"
         transform="translate(-59.600999,-97.765002)"
         id="path90" />
    </clipPath>
    <clipPath
       clipPathUnits="userSpaceOnUse"
       id="clipPath92">
      <path
         d="M 0,283.465 H 283.465 V 0 H 0 Z"
         transform="translate(-63.511702,-97.915902)"
         id="path92" />
    </clipPath>
    <clipPath
       clipPathUnits="userSpaceOnUse"
       id="clipPath94">
      <path
         d="M 0,283.465 H 283.465 V 0 H 0 Z"
         transform="translate(-119.18681,-147.2018)"
         id="path94" />
    </clipPath>
    <clipPath
       clipPathUnits="userSpaceOnUse"
       id="clipPath96">
      <path
         d="M 0,283.465 H 283.465 V 0 H 0 Z"
         transform="translate(-124.4457,-144.3112)"
         id="path96" />
    </clipPath>
    <clipPath
       clipPathUnits="userSpaceOnUse"
       id="clipPath98">
      <path
         d="M 0,283.465 H 283.465 V 0 H 0 Z"
         transform="translate(-219.1212,-115.24081)"
         id="path98" />
    </clipPath>
    <clipPath
       clipPathUnits="userSpaceOnUse"
       id="clipPath100">
      <path
         d="M 0,283.465 H 283.465 V 0 H 0 Z"
         transform="translate(-157.09871,-126.9274)"
         id="path100" />
    </clipPath>
    <clipPath
       clipPathUnits="userSpaceOnUse"
       id="clipPath102">
      <path
         d="M 0,283.465 H 283.465 V 0 H 0 Z"
         transform="translate(-257.8557,-152.09041)"
         id="path102" />
    </clipPath>
  </defs>
  <g
     inkscape:label="Livello 1"
     inkscape:groupmode="layer"
     id="layer1"
     transform="translate(-79.578596,-125.14208)">
    <path
       id="path87"
       d="M 0,0 C -0.001,0.051 0.004,0.102 0.014,0.152 1.932,0.149 3.85,0.146 5.769,0.143 5.769,0.09 5.773,0.038 5.78,-0.014 4.925,-0.49 0.84,-0.48 0,0"
       style="fill:#ffffff;fill-opacity:1;fill-rule:evenodd;stroke:none"
       transform="matrix(0.35277776,0,0,-0.35277776,100.51414,130.64249)"
       clip-path="url(#clipPath88)" />
    <path
       id="path89"
       d="M 0,0 C -0.001,0.053 -0.005,0.104 -0.013,0.156 1.296,0.671 2.604,0.667 3.911,0.151 3.901,0.099 3.897,0.047 3.898,-0.006 2.599,-0.004 1.299,-0.002 0,0"
       style="fill:#ffffff;fill-opacity:1;fill-rule:evenodd;stroke:none"
       transform="matrix(0.35277776,0,0,-0.35277776,100.60456,159.60068)"
       clip-path="url(#clipPath90)" />
    <path
       id="path91"
       d="m 0,0 c -1.308,0.002 -2.615,0.003 -3.923,0.005 -14.794,0.97 -26.31,7.517 -34.175,20.185 -2.991,4.817 -4.51,10.149 -5.312,15.741 -2.233,15.585 6.405,36.853 27.678,43.569 3.778,1.193 7.615,2.074 11.565,2.435 1.927,-0.004 3.853,-0.009 5.78,-0.013 9.596,-0.915 17.811,-4.909 25.014,-11.185 0.548,-0.477 0.292,-0.702 -0.075,-1.061 C 20.346,63.588 14.144,57.498 7.959,51.389 7.52,50.955 7.31,50.909 6.813,51.347 c -4.67,4.118 -10.831,4.995 -16.107,2.342 -5.716,-2.874 -8.879,-9.231 -7.699,-15.474 1.162,-6.147 6.302,-10.922 12.494,-11.605 8.019,-0.885 15.175,5.041 15.839,13.157 0.052,0.636 0.251,0.727 0.807,0.725 6.744,-0.027 13.488,-0.037 20.232,-0.034 0.509,0.001 0.754,-0.042 0.752,-0.676 C 33.089,26.727 33.074,13.672 33.052,0.617 33.052,0.503 33.038,0.389 33.02,0.122 32.374,0.733 31.825,1.251 31.277,1.771 29.211,3.728 27.144,5.684 25.081,7.645 23.896,8.772 23.899,8.776 22.59,7.859 18.824,5.221 14.778,3.149 10.376,1.79 6.994,0.746 3.535,0.157 0,0"
       style="fill:#ffffff;fill-opacity:1;fill-rule:evenodd;stroke:none"
       transform="matrix(0.35277776,0,0,-0.35277776,101.98416,159.54745)"
       clip-path="url(#clipPath92)" />
    <path
       id="path93"
       d="m 0,0 c -0.661,0.043 -1.428,0.06 -2.199,0.165 -1.117,0.153 -2.106,-0.217 -2.982,-0.968 -2.25,-1.928 -4.825,-2.235 -6.893,-0.883 -0.804,0.525 -1.388,1.244 -1.758,2.104 -0.273,0.634 -0.57,0.659 -1.189,0.449 -1.579,-0.536 -3.113,-0.454 -4.398,0.778 -1.011,0.969 -0.997,1.774 0.125,2.612 0.543,0.406 0.566,0.615 0.091,1.096 -1.694,1.716 -1.79,2.828 -0.136,4.517 1.245,1.272 1.467,2.507 0.92,4.173 -0.965,2.943 0.294,5.792 3.202,7.554 1.824,1.104 3.644,2.207 5.33,3.516 0.836,0.65 1.611,1.347 1.933,2.418 0.486,1.611 -0.315,2.591 -1.962,2.304 -0.715,-0.124 -0.553,0.257 -0.461,0.62 0.357,1.42 1.826,2.128 3.572,1.828 4.996,-0.86 7.604,-4.084 8.767,-8.764 0.133,-0.537 0.297,-1.076 0.349,-1.624 0.07,-0.72 0.46,-0.749 1.03,-0.642 1.302,0.244 2.603,0.506 3.936,0.142 3.092,-0.845 4.338,-4.188 2.51,-6.782 C 9.424,14.098 9.228,13.585 9.573,12.984 11.974,8.805 9.863,4.152 6.384,1.872 4.363,0.547 2.578,-0.018 0,0"
       style="fill:#ffffff;fill-opacity:1;fill-rule:evenodd;stroke:none"
       transform="matrix(0.35277776,0,0,-0.35277776,121.6251,142.16048)"
       clip-path="url(#clipPath94)" />
    <path
       id="path95"
       d="M 0,0 C 1.389,0.499 1.605,1.843 2.887,2.606 3.128,2.23 3.025,1.887 3.025,1.568 3.008,-13.281 2.976,-28.13 2.981,-42.98 c 0,-0.861 -0.235,-1.055 -1.07,-1.05 -7.517,0.046 -15.035,0.05 -22.552,0.042 -0.643,0 -0.911,0.09 -0.909,0.841 0.048,14.509 0.065,29.018 0.088,43.527 0,0.122 0,0.244 0.001,0.452 0.567,-0.128 0.954,-0.457 1.336,-0.803 2.997,-2.717 6.481,-3.076 9.963,-1.021 0.905,0.535 0.668,0.413 1.732,0.526 0.548,-0.181 0.696,-0.673 0.855,-1.138 0.432,-1.266 0.702,-2.576 0.733,-3.908 0.065,-2.875 0.062,-5.751 -0.311,-8.612 -0.061,-0.461 -0.098,-0.927 0.095,-1.371 0.104,-0.238 0.272,-0.431 0.559,-0.406 0.284,0.025 1.29,-0.583 1.663,1.06 0.088,0.304 0.074,0.617 0.009,0.92 -0.786,3.702 -0.267,7.386 0.145,11.071 0.031,0.279 0.096,0.551 0.243,0.793 0.31,0.509 0.721,0.558 1.128,0.117 0.375,-0.404 0.496,-0.925 0.564,-1.448 0.62,-4.733 0.758,-9.475 0.474,-14.246 -0.171,-2.873 -0.46,-5.728 -0.783,-8.584 -0.07,-0.614 -0.084,-1.241 0.182,-1.826 0.132,-0.291 1.424,-1.215 1.777,-1.228 0.357,-0.013 0.573,0.223 0.712,0.509 0.331,0.683 0.465,1.405 0.367,2.163 -0.329,2.548 -0.408,5.108 -0.521,7.673 -0.104,2.35 -0.208,4.7 -0.112,7.043 0.151,3.674 0.096,7.354 0.373,11.023 C -0.255,-0.55 -0.23,-0.243 0,0"
       style="fill:#ffffff;fill-opacity:1;fill-rule:evenodd;stroke:none"
       transform="matrix(0.35277776,0,0,-0.35277776,123.48032,143.18022)"
       clip-path="url(#clipPath96)" />
    <path
       id="path97"
       d="m 0,0 c 0.017,-2.937 2.507,-5.387 5.481,-5.389 2.98,-0.003 5.403,2.443 5.393,5.443 C 10.863,3.082 8.48,5.473 5.471,5.475 2.448,5.477 -0.017,3.01 0,0 m 11.266,-17.743 c 0.002,1.391 0.004,2.782 0.006,4.241 -0.826,-0.17 -1.463,-0.61 -2.134,-0.949 -4.108,-2.084 -8.428,-3.232 -13.05,-2.696 -5.782,0.671 -10.869,2.91 -14.681,7.416 -4.752,5.616 -5.964,16.161 3.264,23.001 7.227,5.357 17.107,5.922 24.863,1.333 0.498,-0.294 0.993,-0.592 1.508,-0.899 0.881,4.915 -2.412,9.031 -7.55,9.611 -2.961,0.335 -5.856,-0.208 -8.774,-0.47 -0.517,-0.047 -1.034,-0.104 -1.544,-0.156 -0.138,0.442 0.107,0.718 0.249,1.007 2.356,4.784 4.735,9.556 7.07,14.349 0.462,0.947 1.11,1.34 2.157,1.426 3.611,0.293 7.22,0.524 10.835,0.139 5.246,-0.558 10.281,-1.757 14.607,-5.007 4.036,-3.032 6.218,-7.174 7.173,-12.041 0.425,-2.158 0.587,-4.334 0.575,-6.54 -0.049,-9.217 -0.05,-18.434 -0.045,-27.652 0,-0.707 -0.089,-1.043 -0.924,-1.211 -7.622,-1.533 -15.23,-3.138 -22.842,-4.72 -0.148,-0.031 -0.313,-0.012 -0.392,-0.183 -0.124,0 -0.248,0.001 -0.371,0.001"
       style="fill:#ffffff;fill-opacity:1;fill-rule:evenodd;stroke:none"
       transform="matrix(0.35277776,0,0,-0.35277776,156.87974,153.43561)"
       clip-path="url(#clipPath98)" />
    <path
       id="path99"
       d="m 0,0 c -0.011,-4.149 3.359,-7.57 7.487,-7.6 4.151,-0.03 7.558,3.338 7.576,7.49 C 15.081,4.064 11.739,7.462 7.598,7.481 3.456,7.499 0.011,4.108 0,0 m 1.719,26.148 c 2.382,0.71 4.599,1.468 6.941,1.74 10.015,1.162 18.453,-2.023 24.539,-9.998 10.978,-14.384 7.937,-34.37 -9.267,-43.572 -7.276,-3.89 -14.986,-3.601 -22.46,-0.337 -2.529,1.105 -4.814,1.228 -7.41,0.597 -5.365,-1.304 -10.78,-2.397 -16.167,-3.607 -0.789,-0.178 -0.968,0.011 -0.966,0.813 0.061,25.888 0.101,51.777 0.122,77.666 0,0.743 0.137,0.976 0.937,0.971 7.608,-0.047 15.218,-0.057 22.827,-0.038 0.757,0.002 0.966,-0.157 0.961,-0.945 C 1.73,42.046 1.732,34.653 1.72,27.261 1.72,26.923 1.719,26.584 1.719,26.148"
       style="fill:#ffffff;fill-opacity:1;fill-rule:evenodd;stroke:none"
       transform="matrix(0.35277776,0,0,-0.35277776,134.99958,149.31283)"
       clip-path="url(#clipPath100)" />
    <path
       id="path101"
       d="M 0,0 0.545,-0.001 C 1.182,-0.002 1.698,0.21 1.698,0.725 1.699,1.18 1.367,1.483 0.639,1.484 0.335,1.485 0.124,1.455 0.002,1.425 Z m -0.035,-2.819 -1.152,0.002 0.008,4.971 c 0.455,0.09 1.092,0.15 1.91,0.148 C 1.671,2.301 2.095,2.149 2.458,1.936 2.73,1.723 2.942,1.329 2.941,0.844 2.94,0.298 2.516,-0.125 1.909,-0.306 v -0.061 c 0.485,-0.182 0.757,-0.547 0.908,-1.213 0.149,-0.758 0.24,-1.062 0.361,-1.244 l -1.243,0.002 c -0.151,0.182 -0.241,0.637 -0.391,1.213 -0.091,0.546 -0.393,0.789 -1.03,0.79 l -0.546,0.001 z m -3.057,2.612 C -3.095,-2.42 -1.461,-4.18 0.781,-4.184 2.964,-4.187 4.573,-2.432 4.576,-0.25 4.58,1.963 2.976,3.754 0.764,3.757 -1.449,3.761 -3.089,1.975 -3.092,-0.207 m 8.941,-0.014 c -0.004,-2.819 -2.22,-5.028 -5.1,-5.024 -2.849,0.005 -5.118,2.221 -5.114,5.04 0.005,2.758 2.281,4.967 5.13,4.962 2.88,-0.004 5.088,-2.22 5.084,-4.978"
       style="fill:#ffffff;fill-opacity:1;fill-rule:nonzero;stroke:none"
       transform="matrix(0.35277776,0,0,-0.35277776,170.54441,140.43589)"
       clip-path="url(#clipPath102)" />
  </g>
</svg>
