<svg xmlns="http://www.w3.org/2000/svg" xmlns:xlink="http://www.w3.org/1999/xlink" version="1.1" id="Livello_1" x="0px" y="0px" viewBox="0 0 700 700" style="enable-background:new 0 0 700 700;" xml:space="preserve">
<g>
	<path d="M538.26,422.67c-0.01-7.34-2.32-14.48-6.61-20.44c-4.28-5.96-10.33-10.43-17.28-12.77c11.05-22.43,12.71-40.21,5.09-54.19   c-4.44-8.13-11.67-14.21-20.76-18.83c9.58-21.63,10.49-39.26,2.82-52.44c-5.42-9.31-14.37-15.43-24.87-19.53   c6.47-15.73,6.86-30.73,1.07-44.79c-8.92-21.69-30.99-36.05-48.68-42.24c-24.47-8.57-20.61-39.49-20.43-40.85   c6.12-47.53-43.81-68.05-44.3-68.17l-0.01,0.01c-1.66-0.67-3.56-0.34-4.9,0.86c-1.34,1.19-1.88,3.05-1.39,4.78   c0,0.26,7.25,26.73-4.96,46.52c-6.51,10.49-17.48,17.48-32.8,20.38c-52.62,10.28-66.55,44.31-69.61,54.61   c-17.36,5.05-30.28,13.98-38.46,26.47c-12.24,18.79-10.26,40.21-8.74,48.79v-0.01c-8.32,4.21-15.92,9.69-22.55,16.24   c-19.97,19.23-29.72,40.38-29.16,62.69c0.81,28.93,18.88,51.76,28.3,61.73v-0.01c-8.85,4.36-15.44,12.26-18.15,21.75   c-2.71,9.48-1.29,19.67,3.91,28.05c5.21,8.38,13.71,14.17,23.41,15.95c9.13,32.9,46.78,168.78,48.63,176.78   c3.1,13.41,22.08,17.92,75.17,17.92h72.79c53.16,0,72.15-4.51,75.17-17.92c1.84-8,39.51-143.89,48.63-176.78   c8.06-1.5,15.34-5.78,20.58-12.09C535.4,438.82,538.27,430.88,538.26,422.67L538.26,422.67z M322.03,130.08   c17.94-3.5,31.07-11.8,39.02-24.68c9.44-15.28,9.21-33.21,7.87-44.14c12.36,7.39,34.09,24.77,30.33,54.05   c-1.9,13.74,1.2,42.08,26.66,50.99c15.73,5.51,35.35,18.11,43.09,36.92c4.86,11.84,4.41,24.7-1.35,38.26v-0.01   c-11.42-2.85-23.11-4.56-34.87-5.12c-10.63-0.7-25.63-10.64-42.98-22.16c-33.21-22.07-74.69-49.6-124.31-41.95l-3.85,0.66   C266.85,160.95,281.91,137.91,322.03,130.08L322.03,130.08z M220.08,207c7.25-11.05,19.1-18.81,35.33-23.11h0.25   c3.7-0.96,7.45-1.73,11.24-2.3c46.02-6.99,85.76,19.37,117.68,40.56c19.23,12.76,34.46,22.86,47.58,23.72   c21.34,1.38,50.94,5.24,61.18,22.92c6.12,10.49,5,25.3-3.3,43.98c-22.03-8.28-51.52-10.49-78.66-12.43   c-10.31-0.77-20.05-1.49-28.72-2.48c-19.74-2.31-40.87-13.53-63.24-25.4c-33.7-17.88-70.87-37.6-107-25.38   c-1.18-8.47-1.9-25.51,7.67-40.09L220.08,207z M161.12,329.36c-0.52-19.53,8.32-38.23,26.22-55.61   c40.56-39.21,84.8-15.73,127.61,6.99c23.16,12.24,45.05,23.91,66.56,26.43c8.87,1.03,18.7,1.75,29.11,2.52   c39.03,2.87,87.6,6.42,100.55,30.17c6.21,11.38,4.02,27.48-6.47,47.88h-1.5H195.67c-1.89,0.01-3.76,0.16-5.63,0.47   c-6.22-6.19-28.13-29.47-28.92-58.91L161.12,329.36z M451.89,631.78c-2.2,9.53-38.76,10.63-66.06,10.63h-72.79   c-27.31,0-63.85-1.1-66.06-10.63c-1.85-8.06-37.36-136.16-47.86-174.07h43.95l8.35,31.47c0.56,2.06,2.42,3.49,4.55,3.5   c0.41-0.01,0.81-0.06,1.2-0.17c1.21-0.31,2.24-1.1,2.87-2.18c0.63-1.08,0.81-2.37,0.49-3.57l-7.71-29.06h51.08l8.34,31.47h-0.01   c0.56,2.07,2.43,3.5,4.56,3.5c0.41-0.01,0.81-0.06,1.2-0.17c2.51-0.66,4.01-3.24,3.34-5.75l-7.71-29.06h71.67l-7.71,29.06h0.01   c-0.67,2.51,0.82,5.09,3.33,5.75c0.39,0.11,0.8,0.17,1.21,0.17c2.13,0,4-1.43,4.55-3.5l8.35-31.47h51.08l-7.71,29.06   c-0.67,2.51,0.83,5.08,3.34,5.75c0.4,0.11,0.81,0.17,1.22,0.17c2.13-0.01,3.99-1.44,4.55-3.5l8.34-31.47h43.96   c-10.58,37.88-46.09,165.98-47.93,174.03L451.89,631.78z M505.28,448.24l-2.67-0.74l-0.22,0.82H196.46l-0.22-0.82l-2.67,0.74h-0.01   c-8.15-0.64-15.51-5.14-19.8-12.11c-4.29-6.97-4.99-15.56-1.89-23.13c3.1-7.57,9.63-13.2,17.57-15.16c0.17-0.02,0.33-0.05,0.49-0.1   c1.86-0.43,3.76-0.65,5.68-0.65h308.89c0.12,0.09,0.24,0.17,0.37,0.24c0.69,0.39,1.45,0.59,2.24,0.58c0.52,0,1.04-0.09,1.54-0.26   c8.07,1.75,14.8,7.29,18.08,14.87c3.27,7.58,2.69,16.28-1.57,23.36c-4.26,7.08-11.67,11.67-19.9,12.32L505.28,448.24z"></path>
</g>
</svg>