<?xml version="1.0" encoding="UTF-8" standalone="no"?>
<svg
   version="1.0"
   width="1800"
   height="220"
   viewBox="0 0 1349.9999 165"
   preserveAspectRatio="xMidYMid"
   id="svg9"
   sodipodi:docname="1769669.svg"
   inkscape:version="1.3.2 (091e20e, 2023-11-25, custom)"
   xmlns:inkscape="http://www.inkscape.org/namespaces/inkscape"
   xmlns:sodipodi="http://sodipodi.sourceforge.net/DTD/sodipodi-0.dtd"
   xmlns="http://www.w3.org/2000/svg"
   xmlns:svg="http://www.w3.org/2000/svg">
  <defs
     id="defs9" />
  <sodipodi:namedview
     id="namedview9"
     pagecolor="#ffffff"
     bordercolor="#000000"
     borderopacity="0.25"
     inkscape:showpageshadow="2"
     inkscape:pageopacity="0.0"
     inkscape:pagecheckerboard="0"
     inkscape:deskcolor="#d1d1d1"
     inkscape:document-units="pt"
     inkscape:zoom="0.45"
     inkscape:cx="737.77778"
     inkscape:cy="94.444444"
     inkscape:window-width="1920"
     inkscape:window-height="1009"
     inkscape:window-x="-8"
     inkscape:window-y="-8"
     inkscape:window-maximized="1"
     inkscape:current-layer="svg9" />
  <metadata
     id="metadata1">
Created by potrace 1.15, written by Peter Selinger 2001-2017
</metadata>
  <g
     id="g13"
     transform="translate(30,3.989209)">
    <path
       d="m 444.23707,85.26563 c -4.9,2 -6.6,7.7 -3.9,12.9 2.9,5.6 12.5,5.8 15.4,0.3 4.2,-7.9 -3.3,-16.5 -11.5,-13.2 z m 6.6,4.8 c 1.8,1.4 2.1,2.5 1.6,4.5 -0.8,3.5 -4.9,4.6 -7.6,2.2 -2.5,-2.3 -2.5,-4 0,-6.5 2.5,-2.5 3.2,-2.5 6,-0.2 z"
       id="path4"
       style="fill:#000000;stroke:none;stroke-width:0.1" />
    <g
       id="g12">
      <path
         d="m 1.4370725,90.56563 c -2.40000003,1.8 -1.70000003,4.8 1.4,6.4 2,1 45.2999995,1.2 214.7999975,1 208.9,-0.2 212.4,-0.2 213.8,-2.1 1.8,-2.5 1.8,-3.1 -0.2,-5 -1.4,-1.4 -22.3,-1.6 -214.8,-1.6 -174.699998,0 -213.4999975,0.2 -214.9999975,1.3 z"
         id="path6"
         style="fill:#000000;stroke:none;stroke-width:0.1" />
    </g>
  </g>
  <g
     id="g11"
     transform="translate(40.05608,15)">
    <path
       d="m 826.03707,75.728442 c -5.4,4.5 -4.2,12.4 2.3,15.1 6.2,2.6 12.5,-2 12.5,-9 0,-3.6 -3.9,-7.6 -8.1,-8.2 -2.8,-0.5 -4.1,-0.1 -6.7,2.1 z m 8.8,3.5 c 2.5,2.5 2.5,4.2 0,6.5 -2.7,2.4 -6.8,1.3 -7.6,-2.2 -0.5,-2 -0.2,-3.1 1.6,-4.5 2.8,-2.3 3.5,-2.3 6,0.2 z"
       id="path5"
       style="fill:#000000;stroke:none;stroke-width:0.1" />
    <path
       d="m 848.43707,79.690083 c -2,1.9 -2,2.5 -0.2,5 1.4,1.9 4.9,1.9 213.80003,2.1 224.6,0.3 216.8,0.4 217.6,-4.2 1,-4.7 10.3,-4.5 -216.4,-4.5 -192.50003,0 -213.40003,0.2 -214.80003,1.6 z"
       id="path7"
       style="fill:#000000;stroke:none;stroke-width:0.1" />
  </g>
  <path
     style="font-size:200px;font-family:'Freestyle Script';-inkscape-font-specification:'Freestyle Script';fill:#004d4d;stroke-width:3.40158"
     d="m 590.23437,109.35548 q 3.125,-4.58985 14.45313,-22.070315 9.66797,-14.94141 30.85937,-43.06641 12.30469,-16.30859 22.26563,-27.34375 5.95703,-6.64063 10.54687,-6.64063 2.63672,0 4.39454,1.85547 1.5625,1.46485 1.5625,3.71094 0,3.32031 -4.00391,10.44922 -0.78125,1.46484 -8.00781,14.16016 -12.89063,22.85156 -17.48047,32.61718 -12.59766,26.75782 -18.45703,45.605465 -3.41797,11.23047 -3.41797,16.50391 0,1.17187 0.19531,2.4414 0.48828,3.8086 0.48828,4.49219 0,2.83203 -2.14844,5.27344 -1.85546,2.24609 -4.19921,2.24609 -2.73438,0 -4.49219,-3.22265 -1.46485,-2.44141 -1.46485,-6.83594 0,-27.63671 46.09375,-108.593745 -24.12109,25.78125 -53.41796,73.828125 -6.44532,10.44922 -10.64454,14.16016 -4.10156,3.61328 -7.8125,3.61328 -3.71093,0 -5.46875,-3.22265 -1.17187,-2.14844 -1.17187,-4.98047 0,-24.414075 29.00391,-76.855475 -9.86329,10.05859 -18.94532,23.33984 -16.5039,24.51172 -29.49218,50.292975 -6.15235,12.40234 -14.94141,33.10546 -4.39453,10.54687 -10.15625,10.54687 -1.46484,0 -2.44141,-1.26953 -0.78125,-0.8789 -0.78125,-2.14843 0,-1.85547 3.61328,-10.15625 7.71485,-18.26171 11.81641,-26.26953 20.99609,-40.917965 49.70703,-76.953125 12.01172,-15.03906 16.60156,-19.53125 4.78516,-4.58984 7.91016,-4.58984 1.95313,0 3.80859,1.75781 2.2461,2.05078 2.2461,4.6875 0,2.92969 -4.10156,9.66797 -11.71875,19.14062 -21.58204,42.96875 -8.49609,21.48437 -10.9375,36.425785 z m 67.57813,11.71875 v 1.75781 q 0,2.14844 1.07422,3.71094 2.4414,3.61327 8.00781,3.61327 12.20703,0 28.22266,-18.74999 2.83203,-3.22267 4.78515,-3.22267 1.07422,0 1.95313,1.07422 0.58594,0.78125 0.58594,1.46485 0,3.80859 -9.375,12.89062 -7.32422,7.12891 -15.625,11.62109 -8.30079,4.49219 -15.42969,4.49219 -7.32422,0 -11.52344,-5.07812 -2.83203,-3.51563 -2.83203,-9.57031 0,-16.5039 15.52734,-32.324215 12.59766,-12.89063 21.97266,-12.89063 2.53906,0 4.58984,1.5625 2.53907,2.05078 2.53907,5.37109 0,5.17579 -4.78516,12.69532 -9.86328,15.624995 -29.6875,21.582035 z m 2.14844,-7.61719 q 6.83593,-2.34375 10.74218,-5.27344 6.83594,-5.27343 10.83985,-11.914065 1.46484,-2.34375 1.46484,-4.19922 0,-1.95312 -1.85547,-1.95312 -2.53906,0 -7.22656,3.80859 -8.39844,6.738285 -13.96484,19.531255 z m 63.18359,-7.12891 q 1.26953,-1.17187 2.44141,-2.34375 20.41015,-19.921875 27.34375,-19.921875 3.80859,0 3.80859,4.19922 0,2.92969 -3.41797,6.93359 -18.65234,21.777345 -18.65234,38.378905 0,5.37109 2.92969,10.2539 1.36718,2.2461 1.36718,3.51563 0,1.17187 -1.17187,2.24609 -1.26953,1.36719 -3.02735,1.36719 -4.0039,0 -6.73828,-5.07812 -2.63672,-4.78516 -2.63672,-11.6211 0,-13.18359 9.96094,-29.19922 -13.28125,8.4961 -24.70703,30.07813 -2.92969,5.17578 -6.25,5.17578 -1.66016,0 -2.73437,-1.17188 -1.36719,-1.36718 -1.36719,-3.51562 0,-5.27344 12.01172,-27.63672 6.44531,-12.109365 10.15625,-17.578115 3.71093,-5.3711 6.34765,-5.3711 1.26953,0 2.44141,1.17188 1.36719,1.36718 1.36719,3.125 0,2.14843 -2.83203,6.15234 -4.10157,5.957025 -6.64063,10.839845 z m 60.64453,18.55468 q -4.19922,5.85938 -7.42187,9.375 -5.66407,6.25 -11.23047,6.25 -4.78516,0 -7.42188,-4.29687 -1.85547,-3.02735 -1.85547,-7.22657 0,-12.59764 10.74219,-28.90624 4.98047,-7.617185 9.86328,-11.621095 3.8086,-3.22266 6.25,-3.22266 1.36719,0 2.53907,1.17188 0.97656,1.07422 0.97656,2.14844 0,1.85547 -3.61328,6.05468 -8.10547,9.667965 -12.30469,17.773435 -4.88281,9.47267 -4.88281,14.84375 0,1.36719 0.58593,2.14844 0.6836,0.68359 1.85547,0.68359 4.98047,0 13.86719,-14.25781 4.58984,-7.42187 7.91016,-16.406245 1.75781,-4.88281 4.58984,-8.69141 2.73438,-3.41796 5.37109,-3.41796 1.46485,0 2.63672,1.26953 1.26953,1.36718 1.26953,3.02734 0,3.51563 -6.73828,15.820305 -4.58984,8.4961 -4.58984,14.16017 0,6.05468 3.22266,10.35155 0.8789,1.17188 5.37109,3.71094 2.14844,1.26953 2.14844,4.10156 0,1.75781 -1.5625,3.02735 -1.46485,1.26953 -3.61328,1.26953 -4.88282,0 -8.88672,-3.90625 -3.61328,-3.51563 -4.58985,-10.15625 -0.19531,-0.87891 -0.48828,-5.07813 z m 16.99219,-85.351555 q 2.53906,0 5.46875,4.19922 0.97656,1.46484 4.39453,5.95703 3.41797,4.39453 4.58984,5.66406 3.61329,4.39453 3.61329,6.73828 0,3.41797 -3.02735,3.41797 -2.34375,0 -5.5664,-3.61328 -13.47657,-15.13672 -13.47657,-18.84766 0,-1.26953 1.07422,-2.24609 1.17188,-1.26953 2.92969,-1.26953 z"
     id="text9"
     aria-label="Menù" />
</svg>
