<svg xmlns="http://www.w3.org/2000/svg" xmlns:xlink="http://www.w3.org/1999/xlink" version="1.1" id="Livello_1" x="0px" y="0px" viewBox="0 0 700 700" style="enable-background:new 0 0 700 700;" xml:space="preserve">
<g>
	<path d="M686.35,423.92c-1.28-10.95-4.52-21.5-9.62-31.35C627.3,297.03,562.15,201.01,477.57,99.02   c-22.12-26.67-60.87-32.65-90.16-13.92L62.91,292.81c-7.93,5.07-14.55,11.98-19.14,19.98c-13.33,23.2-33.21,69.94-16.52,122.35   c10.66,33.47,41.65,65.59,89.63,92.89c41.27,23.48,94.05,42.77,148.62,54.32c54.96,11.64,135.58,25.43,209.18,25.43   c52.98,0,102.32-7.15,135.77-27.39c37.13-22.48,57.66-42.37,68.61-66.52C689.15,491.66,691.26,465.61,686.35,423.92L686.35,423.92z    M604.96,571.3c-32.74,19.81-85.81,28.3-157.73,25.21c-65.96-2.83-134.04-14.91-179.53-24.55   c-99.14-20.99-208.82-72.44-230.34-140.05c-15.45-48.54,3.15-92.17,15.61-113.85c3.74-6.52,9.16-12.17,15.66-16.33L393.12,94.02   c9.7-6.21,20.64-9.21,31.47-9.21c16.83,0,33.43,7.25,44.81,20.97c84.1,101.4,148.83,196.8,197.91,291.67   c4.51,8.71,7.37,18.03,8.51,27.71C684.17,496.29,674.72,529.07,604.96,571.3L604.96,571.3z"></path>
	<path d="M129.31,378.02c34.52,21.5,95.75,50.66,191.41,67.53c53.71,9.47,103.17,12.66,145.41,12.66c32.81,0,61.28-1.92,84.01-4.32   c56.45-5.95,89.85-15.76,91.24-16.18c2.81-0.83,4.4-3.78,3.57-6.59c-0.83-2.8-3.78-4.41-6.59-3.57   c-1.33,0.4-135.74,39.31-315.8,7.56c-93.53-16.49-153.3-44.81-186.97-65.67c-36.42-22.56-50.96-41.45-51.1-41.65   c-1.76-2.33-5.08-2.8-7.42-1.05c-2.34,1.76-2.81,5.08-1.05,7.42C76.62,334.99,91.49,354.48,129.31,378.02L129.31,378.02z"></path>
	<path d="M645.09,483.78c-28.2,23.39-78,39.09-144,45.4c-59.93,5.73-128.78,3.19-193.87-7.13   C178.97,501.7,92.87,458.99,64.76,401.77c-1.29-2.63-4.47-3.71-7.1-2.42c-2.63,1.29-3.71,4.47-2.42,7.1   c15.17,30.88,45.22,57.54,89.31,79.25c42.35,20.84,96.52,36.59,161.01,46.82c40.69,6.46,85.88,10.2,130.46,10.2   c87.14,0,171.9-14.33,215.84-50.77c2.25-1.87,2.56-5.21,0.7-7.47C650.68,482.21,647.34,481.9,645.09,483.78L645.09,483.78z"></path>
	<path d="M142.82,342.16l86.78,41.87c0.73,0.35,1.52,0.53,2.3,0.53c1.27,0,2.54-0.46,3.53-1.35l103.34-92.07   c1.25-1.11,1.9-2.76,1.75-4.42c-0.15-1.67-1.08-3.17-2.5-4.05l-94.71-58.24c-1.8-1.1-4.08-1.04-5.81,0.16l-98.58,68.69   c-8.38,5.83-12.89,15.38-12.08,25.55C127.65,329.01,133.62,337.73,142.82,342.16L142.82,342.16z M231.02,372.94L178.7,347.7   l62.52-48.83l47.64,22.53L231.02,372.94z M297.46,313.74l-51.63-24.42v-50.89l80.56,49.53L297.46,313.74z"></path>
	<path d="M272.05,209.27l86.41,58.92c0.91,0.62,1.95,0.92,2.99,0.92c1.27,0,2.53-0.45,3.53-1.35l88.15-78.55   c9.54-8.51,11.11-22.75,3.65-33.14l-19.43-27c-7.46-10.37-19.52-16-32.26-15.06c-6.52,0.48-12.79,2.71-18.14,6.44l-114.94,80.08   c-1.43,1-2.28,2.63-2.27,4.38C269.75,206.66,270.62,208.29,272.05,209.27L272.05,209.27z M361.02,257.1l-35.42-24.15l74.53-58.23   l25.82,24.52L361.02,257.1z M428.75,135.28l19.43,27c4.28,5.96,3.38,14.14-2.1,19.03l-12.18,10.86l-27.88-26.48l4.25-41.02   C417.62,125.35,424.32,129.13,428.75,135.28L428.75,135.28z"></path>
	<path d="M479.98,355.15c7.38,10.91,16.13,20.62,26,28.86c19.87,16.58,45.26,27.98,75.47,33.9c0.34,0.07,0.68,0.1,1.02,0.1   c1.27,0,2.51-0.45,3.48-1.3l29.52-25.66c1.37-1.19,2.04-3,1.76-4.8c-6.52-42.93-32.36-89.17-60.11-107.55   c-2.09-1.39-4.87-1.11-6.65,0.65l-69.82,69.06C478.83,350.2,478.55,353.03,479.98,355.15L479.98,355.15z M580.96,406.98   c-25-5.21-46.31-14.42-63.49-27.41l31.19-29.51c18.86,13.88,31.5,31.43,37.66,52.25L580.96,406.98z M606.28,384.97l-11.25,9.78   c-7.4-21.51-21.25-39.66-41.26-54.06l4.75-47.57C580.32,312.14,600.23,349.97,606.28,384.97L606.28,384.97z"></path>
	<path d="M417.86,419.05c10.44,7.85,23.48,12.57,39.89,14.46c5.29,0.6,10.96,0.91,16.96,0.91c3.34,0,6.78-0.09,10.31-0.28   c8.92-0.47,16.25-6.33,18.66-14.93c2.39-8.55-0.8-17.31-8.14-22.33l-34.19-23.35c-2.09-1.43-4.91-1.18-6.72,0.61l-37.31,36.91   c-1.1,1.08-1.67,2.59-1.56,4.13C415.86,416.7,416.63,418.12,417.86,419.05L417.86,419.05z M493.47,416.34   c-0.92,3.3-3.78,6.92-9.01,7.2c-7.42,0.4-14.39,0.34-20.8-0.14v-35.46l25.9,17.69C493.83,408.55,494.38,413.08,493.47,416.34   L493.47,416.34z"></path>
	<path d="M439.03,353.73c-0.22-1.59-1.14-3-2.52-3.82l-69.63-41.85c-1.46-0.88-3.25-1-4.82-0.33   c-30.15,12.9-58.09,37.84-85.41,76.24c-0.82,1.16-1.15,2.6-0.9,4c0.25,1.4,1.05,2.64,2.22,3.45c9.65,6.62,20.42,11.75,32,15.26   c12.85,3.88,26.97,5.83,42.23,5.83c11.23,0,23.07-1.05,35.48-3.16c1.13-0.19,2.17-0.75,2.96-1.58l46.99-49.66   C438.73,356.92,439.25,355.32,439.03,353.73L439.03,353.73z M384.16,399.17c-22.76,3.69-43.36,3.62-61.44-0.2l41.95-35.93   l33.19,21.65L384.16,399.17z M405.27,376.85l-35.74-23.31l-0.07-31.57l55.93,33.62L405.27,376.85z"></path>
	<path d="M386.3,292.69c8.16,9.3,18.2,16.77,29.85,22.18c13.87,6.46,30.45,10.21,49.29,11.15c0.09,0,0.18,0.01,0.26,0.01   c0.88,0,1.75-0.22,2.53-0.64c18-9.78,33.16-21.31,45.06-34.28c11.03-11.99,19.57-25.56,25.36-40.32c0.63-1.6,0.44-3.41-0.5-4.85   c-12.68-19.32-31.64-33.47-56.37-42.07c-1.82-0.63-3.84-0.23-5.27,1.05l-89.75,80.32C384.58,287.18,384.38,290.5,386.3,292.69   L386.3,292.69z M464.48,315.35c-13.41-0.78-25.47-3.12-36.04-6.91l51.76-44.33c8.4,5.43,15.78,12.94,22.43,22.79   C492.28,297.49,479.48,307.06,464.48,315.35L464.48,315.35z M527.73,249.48c-4.42,10.51-10.4,20.33-17.8,29.31   c-7.34-10.36-15.56-18.34-24.94-24.2l0.29-38.05C503.4,224.07,517.65,235.12,527.73,249.48L527.73,249.48z"></path>
</g>
</svg>