<svg xmlns="http://www.w3.org/2000/svg" xmlns:xlink="http://www.w3.org/1999/xlink" id="Livello_1" x="0px" y="0px" viewBox="0 0 700 700" style="enable-background:new 0 0 700 700;" xml:space="preserve"><g>	<path d="M516.98,121.11c-14.82-15.05-40.25-14.09-53.88,2.05l-23.73,28.09c-8.38-8.41-19.64-13.95-32.16-14.95   c-9.9-22.59-36.59-33.81-59.59-24.56c-28.57,11.48-40.71-15.21-47.59-36.79c-1.6-5.01-8.1-6.62-11.86-2.95   c-17.71,17.31-26.59,40.3-25.13,64.25c-38.1-2.55-65.99,37.96-49.88,72.69c-23.18,4.9-40.63,25.51-40.63,50.12   c0,3.02,0.05,6.74,0.37,9.74l33.42,311.98c3,28.06,26.53,49.22,54.73,49.22h140.62c28.2,0,51.73-21.16,54.73-49.21l23.52-219.54   c0.42-3.94-2.43-7.48-6.38-7.9c-3.93-0.42-7.48,2.43-7.9,6.38l-23.52,219.54c-2.22,20.74-19.61,36.38-40.45,36.38H261.04   c-20.84,0-38.23-15.64-40.45-36.38l-30.13-281.32c18.56,15.92,46.64,16.32,65.62,0.88c36.71,50.08,113.84,50.09,150.54,0   c32.84,26.71,83.55,2.45,83.55-39.75c0-17.47-8.8-32.92-22.19-42.17l47.54-43.18C530.63,159.98,531.32,135.66,516.98,121.11   L516.98,121.11z M475.81,259.06c0,33.49-43.18,49.4-64.95,23.91c-3.15-3.69-9.16-3.17-11.64,1c-29.99,50.63-105.77,50.63-135.77,0   c-2.46-4.15-8.52-4.65-11.64-1c-21.74,25.46-64.95,9.61-64.95-23.91c0-19.91,15.86-36.18,35.62-36.85   c25.71,23.14,58.79,35.85,93.46,35.85c3.96,0,7.18-3.21,7.18-7.18c0-3.96-3.21-7.18-7.18-7.18c-31.72,0-61.95-11.85-85.2-33.38   c-21.27-26.66,3.87-66.4,36.99-58.92c25.81,23.56,59.18,36.51,94.19,36.51c3.96,0,7.18-3.21,7.18-7.18c0-3.96-3.21-7.18-7.18-7.18   c-31.17,0-60.89-11.44-83.98-32.27c-2.6-17.86,1.79-35.39,12.24-49.79c8.11,26.84,34.83,44.79,62.75,33.57   c17.13-6.89,36.93,2.88,42.35,20.4c1.05,3.41,4.48,5.02,7.75,5.04c30.23,0,47.8,36.24,28.78,59.92   c-19.59,22.15-47.76,35.17-77.32,35.72c-3.92,0.07-7.04,3.27-7.04,7.18v0.14c0.07,3.92,3.27,7.04,7.18,7.04h0.14   c32.54-0.61,63.6-14.52,85.73-38.27C460.11,223.06,475.81,239.27,475.81,259.06L475.81,259.06z M505.86,163.08l-51.79,47.04   c-1.49-0.46-3-0.86-4.54-1.19c6.72-14.48,6.23-31.81-1.37-45.85l25.9-30.65c8.29-9.81,23.67-10.4,32.69-1.25   C515.45,140.02,515.05,154.74,505.86,163.08L505.86,163.08z"></path>	<path d="M484.8,327.48c0,4.62-3.75,8.38-8.38,8.38s-8.38-3.75-8.38-8.38c0-4.63,3.75-8.38,8.38-8.38S484.8,322.85,484.8,327.48"></path></g></svg>